<?xml version="1.0" encoding="UTF-8" standalone="no"?>
<svg
   viewBox="0 0 2004.375 2135.8828"
   height="2135.8828"
   width="2004.375"
   xml:space="preserve"
   id="svg2"
   version="1.1"
   xmlns="http://www.w3.org/2000/svg"
   xmlns:svg="http://www.w3.org/2000/svg"
   xmlns:rdf="http://www.w3.org/1999/02/22-rdf-syntax-ns#"
   xmlns:cc="http://creativecommons.org/ns#"
   xmlns:dc="http://purl.org/dc/elements/1.1/"><metadata
     id="metadata8"><rdf:RDF><cc:Work
         rdf:about=""><dc:format>image/svg+xml</dc:format><dc:type
           rdf:resource="http://purl.org/dc/dcmitype/StillImage" /></cc:Work></rdf:RDF></metadata><defs
     id="defs6" /><g
     transform="matrix(1.3333333,0,0,-1.3333333,-5968.1162,3571.7523)"
     id="g10"><g
       transform="scale(0.1)"
       id="g12"><g
         transform="scale(3.62777)"
         id="g522"><path
           id="path524"
           style="fill:#f5995d;fill-opacity:1;fill-rule:nonzero;stroke:none"
           d="m 14014.2,5392.95 h -453.1 v 784.12 l 453.1,227.82 z m 232.6,0 h -117.9 v 1011.97 l 117.9,-59.26 v -952.68 z m 335.5,0 h -220.9 v 1022.86 l -232.5,116.9 v 234.75 l 510.7,256.79 175.2,-88.06 V 6139.3 l -232.6,-116.9 v -629.45 z m 232.5,0 h -117.9 v 559.24 l 117.9,59.29 z m 567.5,0 h -452.9 v 618.53 l 452.9,-227.71 z m -910.6,1991.24 c 1009.8,0 1828.3,-818.59 1828.3,-1828.33 0,-54.88 -2.6,-109.21 -7.3,-162.88 h -795.8 V 5854 l -567.5,285.33 v 867.08 l -289.8,145.66 -625.4,-314.4 v -304.9 l -567.7,-285.49 v -854.25 h -795.8 c -4.8,53.67 -7.3,107.95 -7.3,162.89 0,1009.73 818.5,1828.27 1828.3,1828.27 v 0" /></g><g
         transform="scale(3.62248)"
         id="g526"><path
           id="path528"
           style="fill:#524352;fill-opacity:1;fill-rule:nonzero;stroke:none"
           d="m 14247.7,3836.32 h 490.3 c 32.8,0 59.6,-26.86 59.6,-59.63 0,-32.82 -26.8,-59.66 -59.6,-59.66 h -490.3 c -32.9,0 -59.7,26.84 -59.7,59.66 0,32.77 26.8,59.63 59.7,59.63 z m 521.5,477.27 c -32.7,0 -59.6,26.86 -59.6,59.71 0,32.79 26.8,59.65 59.6,59.65 h 280.4 885.6 c 32.8,0 59.7,26.83 59.7,59.66 0,32.82 -26.9,59.65 -59.7,59.65 h -607.2 -76.4 c -32.9,0 -59.7,26.83 -59.7,59.66 0,32.77 26.8,59.63 59.7,59.63 h 123.8 712 c 32.8,0 59.7,26.83 59.7,59.65 0,32.82 -26.9,59.66 -59.7,59.66 h -712 v 0.08 c -31.4,1.63 -56.6,27.8 -56.6,59.57 0,31.8 25.2,57.97 56.6,59.57 v 0.09 h 810.6 c 32.8,0 59.7,26.83 59.7,59.65 0,32.82 -26.9,59.66 -59.7,59.66 h -810.6 v 0.11 c -31.4,1.6 -56.6,27.77 -56.6,59.51 0,31.81 25.2,57.97 56.6,59.6 v 0.06 h 864.9 c 32.9,0 59.7,26.83 59.7,59.68 0,32.8 -26.8,59.66 -59.7,59.66 h -864.9 -1765.1 -865 c -32.8,0 -59.6,-26.83 -59.6,-59.66 0,-32.79 26.8,-59.68 59.6,-59.68 h 865 v -0.8 c 28.1,-4.75 49.8,-29.37 49.8,-58.86 0,-29.4 -21.7,-54.08 -49.8,-58.8 v -0.82 h -810.7 c -32.8,0 -59.6,-26.84 -59.6,-59.66 0,-32.82 26.8,-59.65 59.6,-59.65 h 810.7 v -0.8 c 28.1,-4.75 49.8,-29.4 49.8,-58.86 0,-29.43 -21.7,-54.11 -49.8,-58.85 v -0.8 h -712.1 c -32.8,0 -59.6,-26.84 -59.6,-59.66 0,-32.82 26.8,-59.65 59.6,-59.65 h 712.1 128.3 c 32.9,0 59.7,-26.86 59.7,-59.63 0,-32.83 -26.8,-59.66 -59.7,-59.66 h -81 -607.1 c -32.9,0 -59.7,-26.83 -59.7,-59.65 0,-32.83 26.8,-59.66 59.7,-59.66 h 885.5 278.9 c 32.9,0 59.7,-26.83 59.7,-59.65 0,-32.83 -26.8,-59.71 -59.7,-59.71 h -0.5 -950.9 c -32.8,0 -59.6,-26.84 -59.6,-59.66 0,-32.82 26.8,-59.65 59.6,-59.65 h 1229.3 1229.4 c 32.8,0 59.6,26.83 59.6,59.65 0,32.82 -26.8,59.66 -59.6,59.66 h -950.9 -2 z M 13584,4074.97 h 1817.6 c 32.9,0 59.7,-26.84 59.7,-59.66 0,-32.82 -26.8,-59.65 -59.7,-59.65 H 13584 c -32.8,0 -59.7,26.83 -59.7,59.65 0,32.8 26.9,59.66 59.7,59.66" /></g><path
         style="font-size:2400px;font-family:'Arial Rounded MT Bold';-inkscape-font-specification:'Arial Rounded MT Bold, ';text-align:center;text-anchor:middle;fill:#524352;fill-opacity:0.933333;fill-rule:evenodd;stroke-width:105;stroke-linecap:round;stroke-linejoin:round;stroke-opacity:0;paint-order:stroke fill markers"
         d="m 45108.918,-12334.648 v 492.187 h 751.172 v -492.187 q 0,-105.469 46.875,-158.204 48.047,-52.734 125.39,-52.734 78.516,0 126.563,52.734 49.219,51.563 49.219,158.204 v 1353.515 q 0,106.641 -49.219,159.375 -49.219,52.735 -126.563,52.735 -78.515,0 -125.39,-52.735 -46.875,-53.906 -46.875,-159.375 v -577.734 h -751.172 v 577.734 q 0,106.641 -49.219,159.375 -49.219,52.735 -126.562,52.735 -78.516,0 -125.391,-52.735 -46.875,-53.906 -46.875,-159.375 v -1353.515 q 0,-105.469 45.703,-158.204 46.875,-52.734 126.563,-52.734 78.515,0 126.562,52.734 49.219,51.563 49.219,158.204 z m 2228.906,-210.938 q 267.188,0 458.203,108.984 192.188,107.813 290.625,308.204 98.438,199.218 98.438,468.75 0,199.218 -53.906,362.109 -53.907,162.891 -161.719,282.422 -107.813,119.531 -264.844,182.812 -157.031,63.282 -359.766,63.282 -201.562,0 -360.937,-64.454 -159.375,-65.625 -266.016,-183.984 -106.64,-118.359 -161.718,-284.766 -53.907,-166.406 -53.907,-359.765 0,-198.047 56.25,-363.281 57.422,-165.235 165.235,-281.25 107.812,-116.016 262.5,-176.954 154.687,-62.109 351.562,-62.109 z m 494.531,883.594 q 0,-188.672 -60.937,-326.953 -60.938,-138.282 -174.609,-208.594 -112.5,-71.484 -258.985,-71.484 -104.297,0 -193.359,39.843 -87.891,38.672 -152.344,113.672 -63.281,75 -100.781,192.188 -36.328,116.015 -36.328,261.328 0,146.484 36.328,264.844 37.5,118.359 104.297,196.875 67.968,77.343 154.687,116.015 87.891,38.672 192.188,38.672 133.593,0 244.922,-66.797 112.5,-66.797 178.125,-206.25 66.796,-139.453 66.796,-343.359 z m 1674.61,-567.188 h -379.688 v 1248.047 q 0,107.813 -48.047,160.547 -48.046,51.563 -124.218,51.563 -77.344,0 -126.563,-52.735 -48.047,-52.734 -48.047,-159.375 v -1248.047 h -379.687 q -89.063,0 -132.422,-38.672 -43.359,-39.843 -43.359,-104.296 0,-66.797 44.531,-105.469 45.703,-38.672 131.25,-38.672 h 1106.25 q 90.234,0 133.594,39.844 44.531,39.843 44.531,104.297 0,64.453 -44.531,104.296 -44.532,38.672 -133.594,38.672 z m 1516.406,-18.75 h -783.984 v 421.875 h 721.875 q 79.687,0 118.359,36.328 39.844,35.157 39.844,93.75 0,58.594 -38.672,96.094 -38.672,36.328 -119.531,36.328 h -721.875 v 488.672 h 810.937 q 82.031,0 123.047,38.672 42.188,37.5 42.188,100.781 0,60.938 -42.188,99.61 -41.016,37.5 -123.047,37.5 h -945.703 q -113.672,0 -164.062,-50.391 -49.219,-50.391 -49.219,-162.891 v -1291.406 q 0,-75 22.265,-121.875 22.266,-48.047 69.141,-69.14 48.047,-22.266 121.875,-22.266 h 918.75 q 83.203,0 123.047,37.5 41.016,36.328 41.016,96.094 0,60.937 -41.016,98.437 -39.844,36.328 -123.047,36.328 z m 809.766,-86.718 v 1250.39 h 705.468 q 84.375,0 128.907,41.016 45.703,41.015 45.703,103.125 0,63.281 -44.531,103.125 -44.532,38.672 -130.079,38.672 h -840.234 q -113.672,0 -164.062,-50.391 -49.219,-50.391 -49.219,-162.891 v -1323.046 q 0,-105.469 46.875,-158.204 48.047,-52.734 125.39,-52.734 78.516,0 126.563,52.734 49.219,51.563 49.219,158.204 z m 2840.625,86.718 h -783.985 v 421.875 h 721.875 q 79.688,0 118.36,36.328 39.843,35.157 39.843,93.75 0,58.594 -38.671,96.094 -38.672,36.328 -119.532,36.328 h -721.875 v 488.672 h 810.938 q 82.031,0 123.047,38.672 42.187,37.5 42.187,100.781 0,60.938 -42.187,99.61 -41.016,37.5 -123.047,37.5 h -945.703 q -113.672,0 -164.063,-50.391 -49.219,-50.391 -49.219,-162.891 v -1291.406 q 0,-75 22.266,-121.875 22.266,-48.047 69.141,-69.14 48.047,-22.266 121.875,-22.266 h 918.75 q 83.203,0 123.047,37.5 41.015,36.328 41.015,96.094 0,60.937 -41.015,98.437 -39.844,36.328 -123.047,36.328 z m 1567.968,1255.078 -82.031,-215.625 h -698.437 l -82.032,220.313 q -48.046,128.906 -82.031,174.609 -33.984,44.532 -111.328,44.532 -65.625,0 -116.016,-48.047 -50.39,-48.047 -50.39,-108.985 0,-35.156 11.719,-72.656 11.718,-37.5 38.671,-104.297 l 439.454,-1115.625 q 18.75,-48.047 44.531,-114.844 26.953,-67.968 56.25,-112.5 30.469,-44.531 78.515,-71.484 49.219,-28.125 120.704,-28.125 72.656,0 120.703,28.125 49.218,26.953 78.515,70.313 30.469,43.359 50.391,93.75 21.094,49.218 52.734,132.421 l 448.828,1108.594 q 52.735,126.563 52.735,183.985 0,59.765 -50.391,110.156 -49.219,49.219 -119.531,49.219 -41.016,0 -70.313,-15.235 -29.296,-14.062 -49.218,-38.672 -19.922,-25.781 -43.36,-77.343 -22.265,-52.735 -38.672,-92.579 z m -689.062,-476.953 h 513.281 l -258.984,-708.984 z m 2621.484,155.86 q 0,155.859 -80.859,280.078 -79.688,124.219 -234.375,194.531 -154.688,70.313 -366.797,70.313 -254.297,0 -419.531,-96.094 -117.188,-69.141 -191.016,-183.985 -72.656,-116.015 -72.656,-225 0,-63.281 43.359,-107.812 44.532,-45.703 112.5,-45.703 55.078,0 92.578,35.156 38.672,35.156 65.625,104.297 32.813,82.031 70.313,137.109 38.672,55.078 107.812,91.407 69.141,35.156 181.641,35.156 154.688,0 250.781,-71.485 97.266,-72.656 97.266,-180.468 0,-85.547 -52.734,-138.282 -51.563,-53.906 -134.766,-82.031 -82.031,-28.125 -220.313,-59.765 -185.156,-43.36 -310.546,-100.782 -124.219,-58.593 -198.047,-158.203 -72.657,-100.781 -72.657,-249.609 0,-141.797 77.344,-251.953 77.344,-110.157 223.828,-168.75 146.485,-59.766 344.532,-59.766 158.203,0 273.046,39.844 116.016,38.672 192.188,104.297 76.172,64.453 111.328,135.937 35.156,71.485 35.156,139.453 0,62.11 -44.531,112.5 -43.359,49.219 -108.984,49.219 -59.766,0 -91.407,-29.297 -30.468,-30.469 -66.796,-98.437 -46.875,-97.266 -112.5,-151.172 -65.625,-55.078 -210.938,-55.078 -134.766,0 -217.969,59.765 -82.031,58.594 -82.031,141.797 0,51.563 28.125,89.063 28.125,37.5 77.344,64.453 49.219,26.953 99.609,42.187 50.391,15.235 166.406,44.532 145.313,33.984 262.5,75 118.36,41.015 200.391,99.609 83.203,58.594 128.906,148.828 46.875,89.063 46.875,219.141 z m 1427.344,-933.985 h -783.984 v 421.875 h 721.875 q 79.687,0 118.359,36.328 39.844,35.157 39.844,93.75 0,58.594 -38.672,96.094 -38.672,36.328 -119.531,36.328 h -721.875 v 488.672 h 810.937 q 82.031,0 123.047,38.672 42.188,37.5 42.188,100.781 0,60.938 -42.188,99.61 -41.016,37.5 -123.047,37.5 h -945.703 q -113.672,0 -164.062,-50.391 -49.219,-50.391 -49.219,-162.891 v -1291.406 q 0,-75 22.265,-121.875 22.266,-48.047 69.141,-69.14 48.047,-22.266 121.875,-22.266 h 918.75 q 83.203,0 123.047,37.5 41.016,36.328 41.016,96.094 0,60.937 -41.016,98.437 -39.844,36.328 -123.047,36.328 z"
         id="text3"
         transform="scale(1,-1)"
         aria-label="HOTEL EASE" /></g></g></svg>
